<?xml version="1.0" encoding="UTF-8" standalone="no"?>
<svg width="35px" height="27px" viewBox="0 0 35 27" version="1.1" xmlns="http://www.w3.org/2000/svg" xmlns:xlink="http://www.w3.org/1999/xlink">
    <!-- Generator: Sketch 3.7.2 (28276) - http://www.bohemiancoding.com/sketch -->
    <title>N.</title>
    <desc>Created with Sketch.</desc>
    <defs></defs>
    <g id="Page-1" stroke="none" stroke-width="1" fill="none" fill-rule="evenodd">
        <g id="Home" transform="translate(-333.000000, -4044.000000)" fill="#333333">
            <path d="M349.828,4070 L339.568,4053.332 L339.46,4053.332 L339.604,4070 L333.628,4070 L333.628,4044.512 L340.648,4044.512 L350.872,4061.144 L350.98,4061.144 L350.836,4044.512 L356.812,4044.512 L356.812,4070 L349.828,4070 Z M367.476,4066.832 C367.476,4067.84001 367.122004,4068.68 366.414,4069.352 C365.705996,4070.024 364.860005,4070.36 363.876,4070.36 C363.371997,4070.36 362.898002,4070.27 362.454,4070.09 C362.009998,4069.91 361.620002,4069.664 361.284,4069.352 C360.947998,4069.04 360.684001,4068.674 360.492,4068.254 C360.299999,4067.834 360.204,4067.372 360.204,4066.868 C360.204,4066.388 360.299999,4065.932 360.492,4065.5 C360.684001,4065.068 360.947998,4064.69 361.284,4064.366 C361.620002,4064.042 362.009998,4063.784 362.454,4063.592 C362.898002,4063.4 363.371997,4063.304 363.876,4063.304 C364.860005,4063.304 365.705996,4063.64 366.414,4064.312 C367.122004,4064.984 367.476,4065.82399 367.476,4066.832 L367.476,4066.832 Z" id="N."></path>
        </g>
    </g>
</svg>