<?xml version="1.0" encoding="UTF-8" standalone="no"?>
<svg width="77px" height="29px" viewBox="0 0 77 29" version="1.1" xmlns="http://www.w3.org/2000/svg" xmlns:xlink="http://www.w3.org/1999/xlink">
    <!-- Generator: Sketch 3.7.2 (28276) - http://www.bohemiancoding.com/sketch -->
    <title>Nelo</title>
    <desc>Created with Sketch.</desc>
    <defs></defs>
    <g id="Page-1" stroke="none" stroke-width="1" fill="none" fill-rule="evenodd">
        <g id="Home" transform="translate(-182.000000, -34.000000)" fill="#333333">
            <g id="Header">
                <path d="M198.828,62 L188.568,45.332 L188.46,45.332 L188.604,62 L182.628,62 L182.628,36.512 L189.648,36.512 L199.872,53.144 L199.98,53.144 L199.836,36.512 L205.812,36.512 L205.812,62 L198.828,62 Z M222.092,50.984 C222.092,50.0479953 221.798003,49.2440034 221.21,48.572 C220.621997,47.8999966 219.740006,47.564 218.564,47.564 C217.987997,47.564 217.460002,47.6539991 216.98,47.834 C216.499998,48.0140009 216.080002,48.2599984 215.72,48.572 C215.359998,48.8840016 215.072001,49.2499979 214.856,49.67 C214.639999,50.0900021 214.52,50.5279977 214.496,50.984 L222.092,50.984 Z M227.528,53.252 L227.528,53.972 C227.528,54.2120012 227.516,54.4399989 227.492,54.656 L214.496,54.656 C214.544,55.1600025 214.693999,55.615998 214.946,56.024 C215.198001,56.432002 215.521998,56.7859985 215.918,57.086 C216.314002,57.3860015 216.757998,57.6199992 217.25,57.788 C217.742002,57.9560008 218.251997,58.04 218.78,58.04 C219.716005,58.04 220.507997,57.8660017 221.156,57.518 C221.804003,57.1699983 222.331998,56.7200028 222.74,56.168 L226.844,58.76 C226.003996,59.9840061 224.894007,60.9259967 223.514,61.586 C222.133993,62.2460033 220.532009,62.576 218.708,62.576 C217.363993,62.576 216.092006,62.3660021 214.892,61.946 C213.691994,61.5259979 212.642004,60.914004 211.742,60.11 C210.841995,59.305996 210.134003,58.3160059 209.618,57.14 C209.101997,55.9639941 208.844,54.6200076 208.844,53.108 C208.844,51.6439927 209.095997,50.3180059 209.6,49.13 C210.104003,47.9419941 210.787996,46.9340041 211.652,46.106 C212.516004,45.2779959 213.535994,44.6360023 214.712,44.18 C215.888006,43.7239977 217.159993,43.496 218.528,43.496 C219.848007,43.496 221.059994,43.7179978 222.164,44.162 C223.268006,44.6060022 224.215996,45.2479958 225.008,46.088 C225.800004,46.9280042 226.417998,47.947994 226.862,49.148 C227.306002,50.348006 227.528,51.7159923 227.528,53.252 L227.528,53.252 Z M230.272,62 L230.272,34.784 L236.248,34.784 L236.248,62 L230.272,62 Z M258.936,52.964 C258.936,54.4280073 258.672003,55.7539941 258.144,56.942 C257.615997,58.1300059 256.896005,59.1379959 255.984,59.966 C255.071995,60.7940041 254.016006,61.4359977 252.816,61.892 C251.615994,62.3480023 250.332007,62.576 248.964,62.576 C247.619993,62.576 246.342006,62.3480023 245.13,61.892 C243.917994,61.4359977 242.862005,60.7940041 241.962,59.966 C241.061995,59.1379959 240.348003,58.1300059 239.82,56.942 C239.291997,55.7539941 239.028,54.4280073 239.028,52.964 C239.028,51.4999927 239.291997,50.1800059 239.82,49.004 C240.348003,47.8279941 241.061995,46.8320041 241.962,46.016 C242.862005,45.1999959 243.917994,44.5760022 245.13,44.144 C246.342006,43.7119978 247.619993,43.496 248.964,43.496 C250.332007,43.496 251.615994,43.7119978 252.816,44.144 C254.016006,44.5760022 255.071995,45.1999959 255.984,46.016 C256.896005,46.8320041 257.615997,47.8279941 258.144,49.004 C258.672003,50.1800059 258.936,51.4999927 258.936,52.964 L258.936,52.964 Z M253.248,52.964 C253.248,52.3879971 253.152001,51.8240028 252.96,51.272 C252.767999,50.7199972 252.492002,50.2340021 252.132,49.814 C251.771998,49.3939979 251.328003,49.0520013 250.8,48.788 C250.271997,48.5239987 249.660003,48.392 248.964,48.392 C248.267997,48.392 247.656003,48.5239987 247.128,48.788 C246.599997,49.0520013 246.162002,49.3939979 245.814,49.814 C245.465998,50.2340021 245.202001,50.7199972 245.022,51.272 C244.841999,51.8240028 244.752,52.3879971 244.752,52.964 C244.752,53.5400029 244.841999,54.1039972 245.022,54.656 C245.202001,55.2080028 245.471998,55.7059978 245.832,56.15 C246.192002,56.5940022 246.635997,56.9479987 247.164,57.212 C247.692003,57.4760013 248.303997,57.608 249,57.608 C249.696003,57.608 250.307997,57.4760013 250.836,57.212 C251.364003,56.9479987 251.807998,56.5940022 252.168,56.15 C252.528002,55.7059978 252.797999,55.2080028 252.978,54.656 C253.158001,54.1039972 253.248,53.5400029 253.248,52.964 L253.248,52.964 Z" id="Nelo"></path>
            </g>
        </g>
    </g>
</svg>